<svg xmlns="http://www.w3.org/2000/svg" width="156" height="51" fill="none"><defs><linearGradient id="b" x1="71.8" x2=".43" y1="4.78" y2="15.85" gradientUnits="userSpaceOnUse"><stop stop-color="#5AA7F9"/><stop offset="1" stop-color="#3DD68C"/></linearGradient><filter id="a" width="156" height="55.5" x="0" y="-4.5" color-interpolation-filters="sRGB" filterUnits="userSpaceOnUse"><feFlood flood-opacity="0" result="BackgroundImageFix"/><feBlend in="SourceGraphic" in2="BackgroundImageFix" result="shape"/><feColorMatrix in="SourceAlpha" result="hardAlpha" values="0 0 0 0 0 0 0 0 0 0 0 0 0 0 0 0 0 0 127 0"/><feOffset/><feGaussianBlur stdDeviation="24"/><feComposite in2="hardAlpha" k2="-1" k3="1" operator="arithmetic"/><feColorMatrix values="0 0 0 0 0.239216 0 0 0 0 0.839216 0 0 0 0 0.54902 0 0 0 0.4 0"><animate attributeName="values" dur="5s" repeatCount="indefinite" values="0 0 0 0 0.239216 0 0 0 0 0.839216 0 0 0 0 0.54902 0 0 0 0.1 0; 0 0 0 0 0.239216 0 0 0 0 0.839216 0 0 0 0 0.54902 0 0 0 0.4 0; 0 0 0 0 0.239216 0 0 0 0 0.839216 0 0 0 0 0.54902 0 0 0 0.1 0"/></feColorMatrix><feBlend in2="shape" result="effect1_innerShadow_2198_3613"/><feColorMatrix in="SourceAlpha" result="hardAlpha" values="0 0 0 0 0 0 0 0 0 0 0 0 0 0 0 0 0 0 127 0"/><feOffset dy="-4.5"/><feGaussianBlur stdDeviation="6"/><feComposite in2="hardAlpha" k2="-1" k3="1" operator="arithmetic"/><feColorMatrix values="0 0 0 0 0.354543 0 0 0 0 0.654668 0 0 0 0 0.975492 0 0 0 1 0"><animate attributeName="values" dur="5s" repeatCount="indefinite" values="0 0 0 0 0.354543 0 0 0 0 0.654668 0 0 0 0 0.975492 0 0 0 0.4 0; 0 0 0 0 0.354543 0 0 0 0 0.654668 0 0 0 0 0.975492 0 0 0 1 0; 0 0 0 0 0.354543 0 0 0 0 0.654668 0 0 0 0 0.975492 0 0 0 0.4 0"/></feColorMatrix><feBlend in2="effect1_innerShadow_2198_3613" result="effect2_innerShadow_2198_3613"/><feColorMatrix in="SourceAlpha" result="hardAlpha" values="0 0 0 0 0 0 0 0 0 0 0 0 0 0 0 0 0 0 127 0"/><feOffset dy="-3"/><feGaussianBlur stdDeviation="1.5"/><feComposite in2="hardAlpha" k2="-1" k3="1" operator="arithmetic"/><feColorMatrix values="0 0 0 0 1 0 0 0 0 1 0 0 0 0 1 0 0 0 0.85 0"><animate attributeName="values" dur="5s" repeatCount="indefinite" values="0 0 0 0 1 0 0 0 0 1 0 0 0 0 1 0 0 0 0.3 0; 0 0 0 0 1 0 0 0 0 1 0 0 0 0 1 0 0 0 0.85 0; 0 0 0 0 1 0 0 0 0 1 0 0 0 0 1 0 0 0 0.3 0"/></feColorMatrix><feBlend in2="effect2_innerShadow_2198_3613" result="effect3_innerShadow_2198_3613"/></filter></defs><g filter="url(#a)"><rect width="156" height="51" fill="#111113" rx="12"/><rect width="154.5" height="49.5" x=".75" y=".75" stroke="url(#b)" stroke-opacity=".3" stroke-width="1.5" rx="11.25"/><path fill="#fff" fill-rule="evenodd" d="M22 31.67v-.72l.11-.36c.1-.3.31-.75.46-1.05l.74-1.5a411.85 411.85 0 0 1 5.65-10.8l.04-.07a5.1 5.1 0 0 1 1.3-1.51 3.93 3.93 0 0 1 2.25-.66h.9a4 4 0 0 1 2.24.66 5.1 5.1 0 0 1 1.3 1.51l.04.07a384.24 384.24 0 0 1 6.47 12.47 15.84 15.84 0 0 1 .4.98c.02.05.1.33.1.68 0 1.03-.3 1.93-.93 2.89a3.9 3.9 0 0 1-2 1.59c-1.07.34-2.3.12-3.21-.85-.17-.18-.3-.39-.35-.45l-.23-.36a59 59 0 0 1-.57-.96l-.89-1.52A804 804 0 0 0 33 26.94a154.2 154.2 0 0 0-2.08 3.49l-.75 1.28-.89 1.52a58.28 58.28 0 0 1-.8 1.31v.01c-.04.06-.18.27-.34.45a3.04 3.04 0 0 1-3.21.85 3.9 3.9 0 0 1-2-1.6 5.16 5.16 0 0 1-.92-2.49l-.01-.1Zm9.6-6.9.04-.05.06-.1.84-1.27a.56.56 0 0 1 .46-.24.54.54 0 0 1 .45.24l.84 1.27.07.1.03.06a204.3 204.3 0 0 1 3.4 5.7c.9 1.53 1.57 2.7 1.71 2.85.53.56 1.25.21 1.67-.42.42-.63.53-1.07.53-1.54 0-.32-5.99-11.86-6.6-12.82-.57-.93-.75-1.13-1.73-1.16h-.75c-.98.03-1.16.23-1.74 1.16-.59.94-6.34 12.03-6.58 12.79v.23c.03.4.16.8.52 1.34.42.63 1.14.98 1.67.42.14-.15.82-1.32 1.71-2.85a204.3 204.3 0 0 1 3.4-5.7Z" clip-rule="evenodd"/><path fill="#fff" d="M53.08 31V20.1h1.97v9.24h4.8V31h-6.77Zm10.76.17c-.52 0-.98-.1-1.4-.28a2.29 2.29 0 0 1-.98-.83 2.43 2.43 0 0 1-.36-1.36c0-.46.09-.84.26-1.14.17-.3.4-.54.7-.73.3-.18.62-.31 1-.4.37-.1.75-.17 1.15-.21l1.17-.14c.3-.04.51-.1.65-.19.13-.09.2-.22.2-.4v-.04c0-.4-.12-.71-.35-.93-.24-.22-.58-.33-1.03-.33-.47 0-.85.1-1.13.3-.27.21-.45.46-.55.74l-1.8-.26a2.87 2.87 0 0 1 1.9-2 5.1 5.1 0 0 1 2.74-.12c.4.1.75.25 1.08.46.32.2.58.5.77.86.2.36.3.81.3 1.35V31h-1.85v-1.12h-.07a2.36 2.36 0 0 1-1.29 1.1 3.2 3.2 0 0 1-1.1.19Zm.5-1.42c.39 0 .72-.08 1-.23.3-.16.51-.36.66-.62.16-.25.24-.53.24-.83v-.97a.9.9 0 0 1-.31.14 14.52 14.52 0 0 1-1.46.26c-.29.04-.55.1-.77.2-.23.08-.4.2-.54.37a.91.91 0 0 0-.2.6c0 .36.13.63.4.8.25.19.58.28.98.28Zm10.97-2.2v-4.73h1.93V31h-1.87v-1.45h-.08a2.54 2.54 0 0 1-2.46 1.56 2.48 2.48 0 0 1-2.38-1.4 3.7 3.7 0 0 1-.35-1.68v-5.21h1.93v4.9c0 .53.14.94.42 1.25.29.3.66.45 1.12.45a1.77 1.77 0 0 0 1.48-.82c.18-.28.27-.63.27-1.04Zm5.84-1.34V31h-1.92v-8.18h1.84v1.39h.1c.18-.46.48-.82.9-1.1.41-.26.92-.4 1.53-.4a2.55 2.55 0 0 1 2.46 1.41c.23.46.35 1.02.35 1.67V31h-1.93v-4.91c0-.55-.14-.98-.43-1.29a1.5 1.5 0 0 0-1.16-.46c-.34 0-.64.08-.9.23a1.5 1.5 0 0 0-.62.63 2.2 2.2 0 0 0-.22 1Zm10.79 4.95a3.6 3.6 0 0 1-3.45-2.02 4.91 4.91 0 0 1-.47-2.2c0-.83.16-1.56.47-2.2.32-.64.78-1.14 1.36-1.49a3.9 3.9 0 0 1 2.08-.54c.66 0 1.25.12 1.76.37a3.01 3.01 0 0 1 1.75 2.57H93.6a1.7 1.7 0 0 0-.54-.98c-.27-.27-.64-.4-1.1-.4-.4 0-.75.1-1.05.32-.3.2-.53.5-.7.9-.16.4-.24.87-.24 1.42 0 .56.08 1.04.25 1.44.16.4.39.7.68.92.3.21.65.32 1.05.32.29 0 .54-.05.76-.16a1.71 1.71 0 0 0 .89-1.23h1.84a3.03 3.03 0 0 1-1.72 2.58c-.5.26-1.1.38-1.78.38Zm7.01-4.95V31h-1.93V20.1h1.89v4.1h.1c.19-.45.48-.82.89-1.08.4-.27.91-.4 1.54-.4.57 0 1.06.11 1.49.35.42.24.74.58.98 1.04.23.46.35 1.02.35 1.68V31h-1.93v-4.91c0-.55-.14-.98-.43-1.29-.28-.3-.67-.46-1.18-.46-.34 0-.65.08-.92.23a1.5 1.5 0 0 0-.62.63 2.1 2.1 0 0 0-.23 1Zm13.35 4.96c-.52 0-.99-.1-1.4-.28a2.29 2.29 0 0 1-.98-.83 2.43 2.43 0 0 1-.36-1.36c0-.46.09-.84.26-1.14.17-.3.4-.54.7-.73.29-.18.62-.31.99-.4.37-.1.76-.17 1.16-.21l1.16-.14c.3-.04.52-.1.65-.19a.44.44 0 0 0 .21-.4v-.04c0-.4-.12-.71-.36-.93-.23-.22-.58-.33-1.02-.33-.48 0-.85.1-1.13.3-.27.21-.46.46-.55.74l-1.8-.26a2.87 2.87 0 0 1 1.9-2 5.1 5.1 0 0 1 2.74-.12c.4.1.75.25 1.07.46.32.2.58.5.78.86.2.36.3.81.3 1.35V31h-1.86v-1.12h-.06a2.38 2.38 0 0 1-1.29 1.1 3.2 3.2 0 0 1-1.11.19Zm.5-1.42c.39 0 .72-.08 1-.23.29-.16.5-.36.66-.62.16-.25.23-.53.23-.83v-.97a.9.9 0 0 1-.3.14c-.15.04-.3.08-.48.11a14.68 14.68 0 0 1-.98.15c-.3.04-.55.1-.78.2-.22.08-.4.2-.53.37a.91.91 0 0 0-.2.6c0 .36.13.63.39.8.26.19.59.28.99.28Zm5.76 4.32V22.82h1.9v1.35h.1c.1-.2.25-.4.43-.63.18-.23.42-.42.73-.58.31-.17.7-.25 1.18-.25a3.12 3.12 0 0 1 2.93 1.9c.3.63.45 1.4.45 2.31 0 .9-.15 1.66-.44 2.29a3.1 3.1 0 0 1-2.93 1.93 2.37 2.37 0 0 1-1.91-.8 3.64 3.64 0 0 1-.44-.63h-.08v4.36h-1.92Zm1.89-7.16c0 .53.07 1 .22 1.39.16.4.37.7.66.93.28.22.63.33 1.04.33.43 0 .78-.11 1.07-.34.29-.23.5-.54.65-.94.15-.4.22-.86.22-1.37 0-.5-.07-.96-.21-1.35-.15-.4-.36-.7-.65-.93a1.7 1.7 0 0 0-1.08-.34c-.41 0-.76.11-1.05.33a2 2 0 0 0-.65.9c-.15.4-.22.86-.22 1.39Zm7.48 7.16V22.82h1.9v1.35h.11c.1-.2.24-.4.42-.63a2.4 2.4 0 0 1 1.92-.83 3.12 3.12 0 0 1 2.92 1.9c.3.63.46 1.4.46 2.31 0 .9-.15 1.66-.45 2.29a3.1 3.1 0 0 1-2.93 1.93 2.37 2.37 0 0 1-1.91-.8 3.64 3.64 0 0 1-.43-.63h-.08v4.36h-1.93Zm1.9-7.16c0 .53.07 1 .22 1.39.15.4.37.7.65.93.29.22.64.33 1.05.33.42 0 .78-.11 1.07-.34.28-.23.5-.54.65-.94.15-.4.22-.86.22-1.37 0-.5-.07-.96-.22-1.35-.14-.4-.36-.7-.65-.93a1.7 1.7 0 0 0-1.07-.34c-.42 0-.77.11-1.05.33a2 2 0 0 0-.66.9c-.14.4-.22.86-.22 1.39Z"/></g></svg>