<svg xmlns="http://www.w3.org/2000/svg" width="167" height="51" fill="none"><defs><linearGradient id="b" x1="76.86" x2=".72" y1="4.78" y2="17.42" gradientUnits="userSpaceOnUse"><stop stop-color="#5AA7F9"/><stop offset="1" stop-color="#3DD68C"/></linearGradient><filter id="a" width="167" height="55.5" x="0" y="-4.5" color-interpolation-filters="sRGB" filterUnits="userSpaceOnUse"><feFlood flood-opacity="0" result="BackgroundImageFix"/><feBlend in="SourceGraphic" in2="BackgroundImageFix" result="shape"/><feColorMatrix in="SourceAlpha" result="hardAlpha" values="0 0 0 0 0 0 0 0 0 0 0 0 0 0 0 0 0 0 127 0"/><feOffset/><feGaussianBlur stdDeviation="24"/><feComposite in2="hardAlpha" k2="-1" k3="1" operator="arithmetic"/><feColorMatrix values="0 0 0 0 0.239216 0 0 0 0 0.839216 0 0 0 0 0.54902 0 0 0 0.4 0"><animate attributeName="values" dur="2s" repeatCount="indefinite" values="0 0 0 0 0.239216 0 0 0 0 0.839216 0 0 0 0 0.54902 0 0 0 0.1 0; 0 0 0 0 0.239216 0 0 0 0 0.839216 0 0 0 0 0.54902 0 0 0 0.4 0; 0 0 0 0 0.239216 0 0 0 0 0.839216 0 0 0 0 0.54902 0 0 0 0.1 0"/></feColorMatrix><feBlend in2="shape" result="effect1_innerShadow_2198_3613"/><feColorMatrix in="SourceAlpha" result="hardAlpha" values="0 0 0 0 0 0 0 0 0 0 0 0 0 0 0 0 0 0 127 0"/><feOffset dy="-4.5"/><feGaussianBlur stdDeviation="6"/><feComposite in2="hardAlpha" k2="-1" k3="1" operator="arithmetic"/><feColorMatrix values="0 0 0 0 0.354543 0 0 0 0 0.654668 0 0 0 0 0.975492 0 0 0 1 0"><animate attributeName="values" dur="2s" repeatCount="indefinite" values="0 0 0 0 0.354543 0 0 0 0 0.654668 0 0 0 0 0.975492 0 0 0 0.4 0; 0 0 0 0 0.354543 0 0 0 0 0.654668 0 0 0 0 0.975492 0 0 0 1 0; 0 0 0 0 0.354543 0 0 0 0 0.654668 0 0 0 0 0.975492 0 0 0 0.4 0"/></feColorMatrix><feBlend in2="effect1_innerShadow_2198_3613" result="effect2_innerShadow_2198_3613"/><feColorMatrix in="SourceAlpha" result="hardAlpha" values="0 0 0 0 0 0 0 0 0 0 0 0 0 0 0 0 0 0 127 0"/><feOffset dy="-3"/><feGaussianBlur stdDeviation="1.5"/><feComposite in2="hardAlpha" k2="-1" k3="1" operator="arithmetic"/><feColorMatrix values="0 0 0 0 1 0 0 0 0 1 0 0 0 0 1 0 0 0 0.85 0"><animate attributeName="values" dur="2s" repeatCount="indefinite" values="0 0 0 0 1 0 0 0 0 1 0 0 0 0 1 0 0 0 0.3 0; 0 0 0 0 1 0 0 0 0 1 0 0 0 0 1 0 0 0 0.85 0; 0 0 0 0 1 0 0 0 0 1 0 0 0 0 1 0 0 0 0.3 0"/></feColorMatrix><feBlend in2="effect2_innerShadow_2198_3613" result="effect3_innerShadow_2198_3613"/></filter></defs><g filter="url(#a)"><rect width="167" height="51" fill="#111113" rx="12"/><rect width="165.5" height="49.5" x=".75" y=".75" stroke="url(#b)" stroke-opacity=".3" stroke-width="1.5" rx="11.25"/><path fill="#fff" d="M22 32.48c.04.5.21.99.66 1.65.53.78 1.44 1.22 2.1.52.46-.46 5.32-9.05 7.66-12.3a.7.7 0 0 1 .58-.3.7.7 0 0 1 .57.3c2.34 3.25 7.2 11.84 7.65 12.3.67.7 1.58.26 2.11-.52.53-.77.67-1.32.67-1.9 0-.39-7.57-14.62-8.33-15.8-.74-1.14-.96-1.39-2.2-1.43h-.95c-1.24.04-1.46.29-2.2 1.43-.74 1.16-8.02 14.83-8.32 15.76v.3ZM53.22 31V18.64h2.24v10.48h5.44V31h-7.68Zm12.2.19c-.59 0-1.12-.1-1.59-.32a2.6 2.6 0 0 1-1.1-.94c-.28-.41-.41-.92-.41-1.53 0-.53.1-.96.29-1.3.19-.34.45-.62.79-.82a4 4 0 0 1 1.13-.47c.42-.1.86-.18 1.3-.23.55-.06 1-.1 1.33-.15.34-.05.58-.12.74-.22.15-.1.23-.26.23-.46v-.04c0-.46-.13-.8-.4-1.06-.27-.25-.66-.37-1.17-.37-.53 0-.96.12-1.27.35-.31.23-.52.5-.63.83l-2.04-.3a3.26 3.26 0 0 1 2.15-2.26 5.78 5.78 0 0 1 3.1-.13c.46.1.86.27 1.23.51.36.24.66.56.88.97.22.42.34.93.34 1.54V31h-2.1v-1.27h-.08a2.67 2.67 0 0 1-1.46 1.26c-.36.13-.78.2-1.26.2Zm.57-1.6c.44 0 .82-.1 1.14-.27.32-.18.57-.4.74-.7.18-.29.27-.6.27-.95v-1.09c-.07.06-.19.11-.35.16a16.87 16.87 0 0 1-1.65.3c-.33.04-.63.11-.88.21-.26.1-.46.24-.61.42-.15.18-.23.41-.23.7 0 .4.15.7.44.9.3.2.67.31 1.13.31Zm12.43-2.49v-5.37h2.19V31h-2.12v-1.65h-.1c-.2.52-.55.95-1.03 1.28a3 3 0 0 1-1.76.5c-.6 0-1.14-.14-1.6-.41a2.81 2.81 0 0 1-1.1-1.2 4.2 4.2 0 0 1-.39-1.89v-5.9h2.19v5.56c0 .6.16 1.06.48 1.4.32.35.75.52 1.27.52a2 2 0 0 0 1.68-.93c.2-.32.3-.7.3-1.18Zm6.62-1.53V31h-2.18v-9.27h2.08v1.57h.11c.22-.52.56-.93 1.02-1.23.47-.31 1.06-.46 1.75-.46.64 0 1.2.13 1.67.4.48.28.85.68 1.11 1.2.27.52.4 1.15.4 1.89V31h-2.2v-5.57c0-.62-.15-1.1-.47-1.45a1.7 1.7 0 0 0-1.33-.53c-.38 0-.72.09-1.02.26-.29.16-.52.4-.7.72-.16.31-.24.69-.24 1.14Zm12.22 5.61a4.07 4.07 0 0 1-3.91-2.3 5.57 5.57 0 0 1-.53-2.48c0-.94.18-1.77.54-2.5.36-.72.87-1.28 1.53-1.68.67-.41 1.45-.61 2.36-.61.75 0 1.42.14 2 .41a3.41 3.41 0 0 1 1.98 2.92h-2.09a2 2 0 0 0-.6-1.12c-.31-.3-.73-.45-1.26-.45-.45 0-.84.12-1.18.36-.34.24-.6.58-.79 1.03-.18.44-.28.98-.28 1.6 0 .64.1 1.18.28 1.63.19.45.45.8.78 1.05a2 2 0 0 0 1.19.36c.32 0 .6-.06.86-.18.26-.13.47-.3.65-.54.17-.23.29-.52.35-.85h2.1a3.43 3.43 0 0 1-1.94 2.93c-.59.28-1.26.42-2.04.42Zm7.95-5.61V31h-2.18V18.64h2.13v4.66h.11c.22-.52.56-.93 1.01-1.23a3.1 3.1 0 0 1 1.75-.46c.65 0 1.2.13 1.69.4.47.27.84.67 1.1 1.18.27.52.4 1.16.4 1.9V31h-2.18v-5.57c0-.62-.16-1.1-.48-1.45a1.72 1.72 0 0 0-1.34-.53c-.39 0-.74.09-1.04.26-.3.16-.54.4-.71.72-.17.31-.26.69-.26 1.14Zm15.13 5.62c-.59 0-1.12-.1-1.59-.32a2.58 2.58 0 0 1-1.11-.94c-.27-.41-.4-.92-.4-1.53 0-.53.1-.96.29-1.3.19-.34.45-.62.79-.82.33-.2.7-.36 1.13-.47.42-.1.85-.18 1.3-.23.55-.06.99-.1 1.33-.15.34-.05.58-.12.73-.22.16-.1.24-.26.24-.46v-.04c0-.46-.14-.8-.4-1.06-.27-.25-.66-.37-1.17-.37-.54 0-.96.12-1.27.35-.31.23-.52.5-.63.83l-2.04-.3a3.26 3.26 0 0 1 2.15-2.26 5.78 5.78 0 0 1 3.1-.13c.45.1.86.27 1.23.51.36.24.66.56.88.97.22.42.33.93.33 1.54V31h-2.1v-1.27h-.07a2.66 2.66 0 0 1-1.46 1.26c-.36.13-.78.2-1.26.2Zm.57-1.6c.43 0 .81-.1 1.14-.27.32-.18.57-.4.74-.7.18-.29.26-.6.26-.95v-1.09c-.06.06-.18.11-.34.16a16.8 16.8 0 0 1-1.65.3c-.34.04-.63.11-.88.21-.26.1-.47.24-.61.42-.15.18-.23.41-.23.7 0 .4.15.7.44.9.3.2.67.31 1.13.31Zm6.52 4.89V21.73h2.15v1.53h.13c.11-.22.27-.46.47-.72.21-.26.49-.47.84-.66.35-.18.8-.27 1.34-.27a3.53 3.53 0 0 1 3.31 2.16c.34.7.52 1.58.52 2.6s-.17 1.89-.5 2.6a3.51 3.51 0 0 1-3.32 2.2 2.7 2.7 0 0 1-2.17-.9c-.21-.27-.38-.5-.5-.73h-.08v4.94h-2.19Zm2.14-8.12c0 .6.09 1.13.26 1.58.17.45.42.8.74 1.06.33.25.72.37 1.18.37.49 0 .9-.13 1.22-.39.32-.26.57-.61.73-1.06.17-.46.26-.98.26-1.56a4.4 4.4 0 0 0-.25-1.53 2.3 2.3 0 0 0-.74-1.05 1.93 1.93 0 0 0-1.22-.38c-.46 0-.86.12-1.19.37-.32.24-.57.59-.74 1.03-.16.44-.25.96-.25 1.56Zm8.49 8.12V21.73h2.15v1.53h.12c.11-.22.27-.46.48-.72.2-.26.48-.47.83-.66.35-.18.8-.27 1.34-.27a3.53 3.53 0 0 1 3.32 2.16c.34.7.51 1.58.51 2.6s-.17 1.89-.5 2.6a3.51 3.51 0 0 1-3.32 2.2 2.7 2.7 0 0 1-2.17-.9c-.2-.27-.37-.5-.49-.73h-.09v4.94h-2.18Zm2.14-8.12c0 .6.08 1.13.25 1.58.18.45.42.8.75 1.06.32.25.72.37 1.18.37.48 0 .89-.13 1.21-.39.33-.26.57-.61.74-1.06.17-.46.25-.98.25-1.56a4.4 4.4 0 0 0-.25-1.53 2.3 2.3 0 0 0-.73-1.05 1.93 1.93 0 0 0-1.22-.38c-.47 0-.86.12-1.19.37-.33.24-.57.59-.74 1.03-.17.44-.25.96-.25 1.56Z"/></g></svg>
